<?xml version="1.0" encoding="utf-8"?>
<!-- Generator: Adobe Illustrator 24.0.1, SVG Export Plug-In . SVG Version: 6.00 Build 0)  -->
<svg version="1.1" id="图层_1" xmlns="http://www.w3.org/2000/svg" xmlns:xlink="http://www.w3.org/1999/xlink" x="0px" y="0px"
	 viewBox="0 0 123 30" style="enable-background:new 0 0 123 30;" xml:space="preserve">
<style type="text/css">
	.st0{fill:#F8F8F8;}
</style>
<title>logo</title>
<path class="st0" d="M61.9,13.9l1.3-1.1c0.1,0,0.1-0.1,0-0.2c0,0,0,0,0,0l-0.8-1.1c-0.1,0-0.1,0-0.2,0l-1.3,1.1
	c-0.1,0-0.1,0.1,0,0.2c0,0,0,0,0,0l0.8,1.1C61.7,14,61.8,14,61.9,13.9z"/>
<path class="st0" d="M61.5,14.6l-0.8-1.1c-0.1,0-0.1,0-0.2,0l-1.3,1.1c-0.1,0-0.1,0.1,0,0.2c0,0,0,0,0,0l0.8,1.1c0,0.1,0,0.1,0,0.2
	c0,0,0,0,0,0l-1.3,1.1c-0.1,0-0.1,0.1,0,0.2c0,0,0,0,0,0l0.8,1.1c0.1,0,0.1,0,0.2,0l4.3-3.5c0.1,0,0.1-0.1,0-0.2c0,0,0,0,0,0
	l-0.8-1.1c-0.1,0-0.1,0-0.2,0l-1.3,1.1C61.6,14.7,61.6,14.7,61.5,14.6z"/>
<path class="st0" d="M61.3,17.5l0.6,0.8c0.1,0,0.1,0,0.2,0l1.3-1.1c0.1,0,0.1-0.1,0-0.2c0,0,0,0,0,0l-0.6-0.8c-0.1,0-0.1,0-0.2,0
	l-1.3,1.1C61.3,17.4,61.3,17.5,61.3,17.5z"/>
<path class="st0" d="M64.7,13.6h3.6c0.1,0,0.1-0.1,0.1-0.1l0.3-1.5c0-0.1,0-0.1-0.1-0.1h-3.6C65,11.9,65,11.9,65,12l-0.3,1.5
	C64.6,13.6,64.6,13.6,64.7,13.6z"/>
<path class="st0" d="M64.2,15.8h0.2c0.1,0,0.1,0.1,0.1,0.1L64,18.3c0,0.1,0,0.1,0.1,0.1h1.7c0.9,0,1.7-0.7,2-1.6l0,0
	c0-0.1,0-0.1-0.1-0.1h-1.5c-0.1,0-0.1-0.1-0.1-0.1l0.1-0.6c0-0.1,0.1-0.1,0.1-0.1h1.5c0.1,0,0.1-0.1,0.1-0.1l0.3-1.5
	c0-0.1,0-0.1-0.1-0.1h-3.6c-0.1,0-0.1,0.1-0.1,0.1l-0.3,1.5C64.1,15.7,64.2,15.8,64.2,15.8z"/>
<path class="st0" d="M57.3,11.9c-0.5,0-1,0.2-1.3,0.5c-0.4,0.3-0.7,0.7-0.8,1.2l-1.1,4.6c0,0.1,0,0.1,0.1,0.1h1.5
	c0.1,0,0.1-0.1,0.1-0.1l0.5-2.4c0-0.1,0.1-0.1,0.1-0.1h0.2c0.1,0,0.1,0.1,0.1,0.1l-0.5,2.4c0,0.1,0,0.1,0.1,0.1l0,0
	c0.9,0,1.7-0.7,2-1.6l0.6-2.6c0-0.1,0-0.1-0.1-0.1h-1.9c-0.1,0-0.1-0.1-0.1-0.1l0-0.2c0-0.1,0.1-0.1,0.1-0.1h1.9
	c0.1,0,0.1-0.1,0.1-0.1l0.3-1.5c0-0.1,0-0.1-0.1-0.1L57.3,11.9z"/>
</svg>
